<?xml version="1.0" encoding="utf-8"?>
<!-- Generator: Adobe Illustrator 26.3.1, SVG Export Plug-In . SVG Version: 6.00 Build 0)  -->
<svg version="1.1" id="Warstwa_1" xmlns="http://www.w3.org/2000/svg" xmlns:xlink="http://www.w3.org/1999/xlink" x="0px" y="0px"
	 viewBox="0 0 430 430" style="enable-background:new 0 0 430 430;" xml:space="preserve">
<style type="text/css">
	.st0{fill:url(#SVGID_1_);}
</style>
<linearGradient id="SVGID_1_" gradientUnits="userSpaceOnUse" x1="50.522" y1="53.024" x2="370.7025" y2="362.2187">
	<stop  offset="0" style="stop-color:#cb5eee"/>
	<stop  offset="1" style="stop-color:#4be1ec"/>
</linearGradient>
<path class="st0" d="M230,60l-8.6-8.6c-2.4-2.3-6.2-2.3-8.5,0c-2.3,2.3-2.3,6.1,0,8.5l8.6,8.6c1.2,1.2,2.7,1.8,4.2,1.8
	c1.5,0,3.1-0.6,4.2-1.8C232.3,66.1,232.3,62.3,230,60z M268.5,98.9l-22.7-23.4c-2.3-2.4-6.1-2.4-8.5-0.1c-2.4,2.3-2.4,6.1-0.1,8.5
	l22.7,23.4c1.2,1.2,2.7,1.8,4.3,1.8c1.5,0,3-0.6,4.2-1.7C270.7,105.1,270.8,101.3,268.5,98.9z M370.8,204.5l-38-39.2
	c-2.3-2.4-6.1-2.4-8.5-0.1c-2.4,2.3-2.4,6.1-0.1,8.5l38,39.2c1.2,1.2,2.7,1.8,4.3,1.8c1.5,0,3-0.6,4.2-1.7
	C373,210.7,373.1,206.9,370.8,204.5z M109.4,257.8L60.6,209c-2.4-2.3-6.2-2.3-8.5,0c-2.3,2.3-2.3,6.1,0,8.5l48.8,48.8
	c1.2,1.2,2.7,1.8,4.2,1.8c1.5,0,3.1-0.6,4.2-1.8C111.7,264,111.7,260.2,109.4,257.8z M213.4,361.8l-38.6-38.6
	c-2.3-2.3-6.1-2.3-8.5,0c-2.3,2.3-2.3,6.1,0,8.5l38.6,38.6c1.2,1.2,2.7,1.8,4.2,1.8c1.5,0,3.1-0.6,4.2-1.8
	C215.7,368,215.7,364.2,213.4,361.8z M115.8,184.7l-58.2-58.2c-2.3-2.3-6.1-2.3-8.5,0c-2.3,2.3-2.3,6.1,0,8.5l58.2,58.2
	c1.2,1.2,2.7,1.8,4.2,1.8c1.5,0,3.1-0.6,4.2-1.8C118.2,190.8,118.2,187,115.8,184.7z M197.8,266.6l-63.4-63.4
	c-2.3-2.3-6.1-2.3-8.5,0c-2.3,2.3-2.3,6.1,0,8.5l63.4,63.4c1.2,1.2,2.7,1.8,4.2,1.8c1.5,0,3.1-0.6,4.2-1.8
	C200.2,272.8,200.2,269,197.8,266.6z M235.1,144.8l-87.2-87.2c-2.4-2.3-6.2-2.3-8.5,0c-2.3,2.3-2.3,6.1,0,8.5l87.2,87.2
	c1.2,1.2,2.7,1.8,4.2,1.8c1.5,0,3.1-0.6,4.2-1.8C237.5,150.9,237.5,147.1,235.1,144.8z M277.4,187l-21-21c-2.3-2.3-6.1-2.3-8.5,0
	c-2.3,2.3-2.3,6.1,0,8.5l21,20.9c1.2,1.2,2.7,1.8,4.2,1.8c1.5,0,3.1-0.6,4.2-1.8C279.7,193.2,279.7,189.4,277.4,187z M121.2,110.5
	L61.4,50.6c-2.3-2.3-6.1-2.3-8.5,0c-2.3,2.3-2.3,6.1,0,8.5l59.9,59.9c1.2,1.2,2.7,1.8,4.2,1.8c1.5,0,3.1-0.6,4.2-1.8
	C123.6,116.6,123.6,112.8,121.2,110.5z M264.7,254L142.2,131.4c-2.3-2.3-6.2-2.3-8.5,0c-2.3,2.3-2.3,6.1,0,8.5l122.6,122.5
	c1.2,1.2,2.7,1.8,4.2,1.8c1.5,0,3.1-0.6,4.2-1.8C267.1,260.1,267.1,256.3,264.7,254z M177.4,292.8c0,2.2-1.2,4.2-3.1,5.3l-20.8,11.4
	L142,330.3c-1.1,1.9-3.1,3.1-5.3,3.1s-4.2-1.2-5.3-3.1l-11.4-20.8l-20.8-11.4c-1.9-1-3.1-3.1-3.1-5.3s1.2-4.2,3.1-5.3l20.8-11.4
	l11.4-20.8c1-1.9,3.1-3.1,5.3-3.1s4.2,1.2,5.3,3.1l11.4,20.8l20.8,11.4C176.2,288.6,177.4,290.7,177.4,292.8z M380.8,297.1
	L348,329.1l7.7,45.1c0.4,2.2-0.5,4.5-2.4,5.9c-1.8,1.3-4.3,1.5-6.3,0.5l-40.5-21.3l-40.5,21.3c-0.9,0.5-1.8,0.7-2.8,0.7
	c-1.2,0-2.5-0.4-3.5-1.2c-1.9-1.3-2.8-3.6-2.4-5.9l7.7-45.1l-32.8-31.9c-1.6-1.6-2.2-4-1.5-6.1c0.7-2.2,2.6-3.8,4.8-4.1l45.3-6.6
	l20.2-41c1-2,3.1-3.3,5.4-3.3c2.3,0,4.4,1.3,5.4,3.3l20.2,41l45.3,6.6c2.3,0.3,4.1,1.9,4.8,4.1C383,293.2,382.4,295.5,380.8,297.1z
	 M336.7,133.7c0,2.2-1.2,4.2-3.1,5.3l-20.8,11.4l-11.4,20.8c-1,1.9-3.1,3.1-5.3,3.1s-4.2-1.2-5.3-3.1l-11.4-20.8l-20.8-11.4
	c-1.9-1-3.1-3.1-3.1-5.3s1.2-4.2,3.1-5.3l20.8-11.4l11.4-20.8c1-1.9,3.1-3.1,5.3-3.1s4.2,1.2,5.3,3.1l11.4,20.8l20.8,11.4
	C335.5,129.5,336.7,131.5,336.7,133.7z"/>
</svg>
