<?xml version="1.0" encoding="utf-8"?>
<!-- icons: Computer Generator: Adobe Illustrator 26.0.2, SVG Export Plug-In . SVG Version: 6.00 Build 0)  -->
<svg version="1.1" id="Warstwa_3" xmlns="http://www.w3.org/2000/svg" xmlns:xlink="http://www.w3.org/1999/xlink" x="0px" y="0px"
	 viewBox="0 0 430 430" style="enable-background:new 0 0 430 430;" xml:space="preserve">
<style type="text/css">
	.st0{fill:url(#SVGID_1_);}
	.st1{fill:url(#SVGID_00000133502243049701579480000017817915582843994303_);}
	.st2{fill:url(#SVGID_00000031185831968777779630000014518587661156110979_);}
	.st3{fill:url(#SVGID_00000149346004128904991610000008540983783727651236_);}
	.st4{fill:url(#SVGID_00000144298783072498528490000004354392561836245393_);}
	.st5{fill:url(#SVGID_00000114054156101133342190000005383366274957444287_);}
	.st6{fill:url(#SVGID_00000051374320666964819560000005866176596336547726_);}
	.st7{fill:url(#SVGID_00000085949133051774727150000012578990462263499435_);}
	.st8{fill:url(#SVGID_00000029026932220560293810000017609880566013122951_);}
	.st9{fill:url(#SVGID_00000129890129835781412060000006895477339007824789_);}
	.st10{fill:url(#SVGID_00000015331498835000884350000017633104721281837221_);}
	.st11{fill:url(#SVGID_00000001634518997768465170000009297249297549613221_);}
	.st12{fill:url(#SVGID_00000074403999193391466230000017478315434512246432_);}
	.st13{fill:url(#SVGID_00000152253296670518803590000004741531573186030254_);}
	.st14{fill:url(#SVGID_00000175287467062924341630000000296408316685681077_);}
	.st15{fill:url(#SVGID_00000165207015480968377700000006024110003461858179_);}
	.st16{fill:url(#SVGID_00000046333956475832030120000009766244811203604100_);}
	.st17{fill:url(#SVGID_00000046331485936587358200000016061398453413716120_);}
	.st18{fill:url(#SVGID_00000096742620711585241680000005564996767518929807_);}
	.st19{fill:url(#SVGID_00000105423692474133204700000015075190697760294590_);}
	.st20{fill:url(#SVGID_00000045585511900597101890000008075199208409791903_);}
	.st21{fill:url(#SVGID_00000071551273281438026380000008438110978904146356_);}
	.st22{fill:url(#SVGID_00000139277967621140153260000011096420653902555054_);}
	.st23{fill:url(#SVGID_00000147903707195013624550000015993642507153897380_);}
	.st24{fill:url(#SVGID_00000178908977567493873160000005974384060552594572_);}
	.st25{fill:url(#SVGID_00000098911778797307522750000002727551736958927284_);}
	.st26{fill:url(#SVGID_00000085235995921421183060000015949858165547375532_);}
	.st27{fill:url(#SVGID_00000101093080897322759660000011019857748175758741_);}
	.st28{fill:url(#SVGID_00000000199928415634670140000009218025793675604645_);}
	.st29{fill:url(#SVGID_00000103249161600014973920000000823673412537854086_);}
</style>
<linearGradient id="SVGID_1_" gradientUnits="userSpaceOnUse" x1="53.7444" y1="30.6859" x2="376.2556" y2="353.197">
	<stop  offset="0" style="stop-color:#cb5eee"/>
	<stop  offset="1" style="stop-color:#4be1ec"/>
</linearGradient>
<path class="st0" d="M383.57,48.64H46.43c-14.19,0-25.73,11.54-25.73,25.73v235.14c0,14.19,11.54,25.73,25.73,25.73h135.75
	l-5.01,19.16l-18.45,15.88c-2,1.72-2.71,4.5-1.8,6.97c0.92,2.47,3.27,4.11,5.91,4.11h104.34c2.63,0,4.99-1.64,5.91-4.11
	c0.92-2.47,0.2-5.25-1.8-6.97l-18.45-15.88l-5.01-19.16h135.75c14.19,0,25.73-11.54,25.73-25.73V74.37
	C409.3,60.18,397.76,48.64,383.57,48.64z M241.14,359.49c0.32,1.24,1.02,2.35,1.98,3.18l7.07,6.09H179.8l7.07-6.09
	c0.97-0.83,1.66-1.94,1.98-3.18l6.34-24.25h39.6L241.14,359.49z M396.7,309.51c0,7.24-5.89,13.13-13.13,13.13H240.73
	c-0.36-0.06-0.72-0.1-1.09-0.1h-49.28c-0.37,0-0.73,0.03-1.09,0.1H46.43c-7.24,0-13.13-5.89-13.13-13.13V74.37
	c0-7.24,5.89-13.13,13.13-13.13h337.15c7.24,0,13.13,5.89,13.13,13.13V309.51z M377.1,74.55H52.9c-3.48,0-6.3,2.82-6.3,6.3v189.08
	c0,3.48,2.82,6.3,6.3,6.3H377.1c3.48,0,6.3-2.82,6.3-6.3V80.85C383.4,77.37,380.58,74.55,377.1,74.55z M370.8,263.63H59.2V87.15
	H370.8V263.63z M226.55,299.53c0,6.38-5.17,11.55-11.55,11.55s-11.55-5.17-11.55-11.55c0-6.38,5.17-11.55,11.55-11.55
	S226.55,293.15,226.55,299.53z"/>
</svg>
