<?xml version="1.0" encoding="utf-8"?>
<!-- Generator: Adobe Illustrator 26.0.2, SVG Export Plug-In . SVG Version: 6.00 Build 0)  -->
<svg version="1.1" id="outline" xmlns="http://www.w3.org/2000/svg" xmlns:xlink="http://www.w3.org/1999/xlink" x="0px" y="0px"
	 viewBox="0 0 430 430" style="enable-background:new 0 0 430 430;" xml:space="preserve">
<style type="text/css">
	.st0{fill:url(#SVGID_1_);}
	.st1{fill:url(#SVGID_00000003068367700632701060000005935264299180721289_);}
	.st2{fill:url(#SVGID_00000103959856006481366740000006581059439527918253_);}
	.st3{fill:url(#SVGID_00000074404752710946064990000008527173587373251719_);}
	.st4{fill:url(#SVGID_00000101813920465497179460000013533526774920370092_);}
	.st5{fill:url(#SVGID_00000118396290618883334240000011063411177594099330_);}
	.st6{fill:url(#SVGID_00000026161284881973200490000000351008198857004947_);}
	.st7{fill:url(#SVGID_00000012445380702310265240000005805286083109536177_);}
	.st8{fill:url(#SVGID_00000003784533646139958210000011824962736311236543_);}
	.st9{fill:url(#SVGID_00000040549918158598021370000007663233147367532714_);}
	.st10{fill:url(#SVGID_00000039132481050242847100000006428582040725332870_);}
	.st11{fill:url(#SVGID_00000019664533872656581710000001241937679818094249_);}
	.st12{fill:url(#SVGID_00000008129500620927841090000017381635274408846473_);}
	.st13{fill:url(#SVGID_00000122687347562504116780000006382069131228406958_);}
	.st14{fill:url(#SVGID_00000033368056623377866020000009005311580033896626_);}
	.st15{fill:url(#SVGID_00000089564143086323096040000007857282122416608445_);}
	.st16{fill:url(#SVGID_00000018221043560806477950000006313855644502664119_);}
	.st17{fill:url(#SVGID_00000103948174280760076130000007488646723894430097_);}
	.st18{fill:url(#SVGID_00000129189044738791542330000006015688770169867937_);}
	.st19{fill:url(#SVGID_00000051341764493323795880000005297311572643357060_);}
	.st20{fill:url(#SVGID_00000164494644106093134930000008319589825439122875_);}
	.st21{fill:url(#SVGID_00000044887329558056820080000005766778694470337697_);}
	.st22{fill:url(#SVGID_00000155831476440624300510000013964747173352908678_);}
	.st23{fill:url(#SVGID_00000098188259605958470650000006310649646604409255_);}
	.st24{fill:url(#SVGID_00000111889710330558173600000016631115152620007836_);}
	.st25{fill:url(#SVGID_00000039852983063174710450000015981869565353787817_);}
	.st26{fill:url(#SVGID_00000071518377505552778340000011918989964397108634_);}
	.st27{fill:url(#SVGID_00000127019171974491070260000001333070595200785851_);}
	.st28{fill:url(#SVGID_00000092419178652542026790000003439999251509245881_);}
	.st29{fill:url(#SVGID_00000108281211282151239250000016687993518186279043_);}
	.st30{fill:url(#SVGID_00000165235259542734756370000003267556772059022731_);}
	.st31{fill:url(#SVGID_00000016763495291084207330000017713738829876683917_);}
	.st32{fill:url(#SVGID_00000181068619658893192870000001748544102146323872_);}
	.st33{fill:url(#SVGID_00000137112454837122710870000015849887743287325373_);}
	.st34{fill:url(#SVGID_00000064335680130300006870000011187460952356726193_);}
	.st35{fill:url(#SVGID_00000129194387150880256820000007856943417801732795_);}
	.st36{fill:url(#SVGID_00000085961071403673422410000007981271882064544417_);}
	.st37{fill:url(#SVGID_00000034066297667272454180000013101992182725121679_);}
</style>
<linearGradient id="SVGID_1_" gradientUnits="userSpaceOnUse" x1="106.1815" y1="66.919" x2="323.6009" y2="284.3383">
	<stop  offset="0" style="stop-color:#cb5eee"/>
	<stop  offset="1" style="stop-color:#4be1ec"/>
</linearGradient>
<path class="st0" d="M214.89,118.58c-30.19,0-54.75,24.56-54.75,54.75c0,28.16,21.37,51.41,48.75,54.41v156.82c0,3.31,2.69,6,6,6
	s6-2.69,6-6V227.74c27.37-3,48.75-26.25,48.75-54.41C269.64,143.14,245.08,118.58,214.89,118.58z M214.89,216.08
	c-23.57,0-42.75-19.18-42.75-42.75s19.18-42.75,42.75-42.75s42.75,19.18,42.75,42.75S238.46,216.08,214.89,216.08z M123.47,173.33
	c0,25.19,10.56,49.51,28.96,66.75c2.42,2.27,2.54,6.06,0.28,8.48c-1.18,1.26-2.78,1.9-4.38,1.9c-1.47,0-2.94-0.54-4.1-1.62
	c-20.82-19.5-32.76-47.02-32.76-75.51c0-28.49,11.94-56.01,32.76-75.51c2.42-2.26,6.22-2.14,8.48,0.28
	c2.27,2.42,2.14,6.22-0.28,8.48C134.03,123.81,123.47,148.14,123.47,173.33z M318.31,173.33c0,28.49-11.94,56.01-32.76,75.51
	c-1.16,1.08-2.63,1.62-4.1,1.62c-1.6,0-3.2-0.64-4.38-1.9c-2.27-2.42-2.14-6.22,0.28-8.48c18.4-17.24,28.96-41.57,28.96-66.75
	s-10.56-49.51-28.96-66.75c-2.42-2.27-2.54-6.06-0.28-8.48c2.27-2.42,6.06-2.54,8.48-0.28
	C306.37,117.32,318.31,144.84,318.31,173.33z M367.02,173.33c0,41.94-17.57,82.43-48.2,111.07c-1.16,1.08-2.63,1.62-4.1,1.62
	c-1.6,0-3.2-0.64-4.38-1.9c-2.26-2.42-2.14-6.22,0.28-8.48c28.21-26.38,44.4-63.67,44.4-102.3s-16.18-75.92-44.4-102.3
	c-2.42-2.26-2.55-6.06-0.28-8.48c2.26-2.42,6.06-2.55,8.48-0.28C349.45,90.9,367.02,131.38,367.02,173.33z M119.16,275.63
	c2.42,2.26,2.55,6.06,0.28,8.48c-1.18,1.26-2.78,1.9-4.38,1.9c-1.47,0-2.94-0.54-4.1-1.62c-30.63-28.64-48.2-69.13-48.2-111.07
	s17.57-82.43,48.2-111.07c2.42-2.26,6.22-2.13,8.48,0.29c2.26,2.42,2.14,6.22-0.29,8.48c-28.21,26.38-44.4,63.67-44.4,102.3
	S90.94,249.25,119.16,275.63z"/>
</svg>
